<?xml version="1.0" encoding="UTF-8" standalone="no"?>
<svg
   xmlns:dc="http://purl.org/dc/elements/1.1/"
   xmlns:cc="http://creativecommons.org/ns#"
   xmlns:rdf="http://www.w3.org/1999/02/22-rdf-syntax-ns#"
   xmlns:svg="http://www.w3.org/2000/svg"
   xmlns="http://www.w3.org/2000/svg"
   xmlns:sodipodi="http://sodipodi.sourceforge.net/DTD/sodipodi-0.dtd"
   xmlns:inkscape="http://www.inkscape.org/namespaces/inkscape"
   version="1.0"
   width="1000.0001"
   height="289.57556"
   id="svg2"
   xml:space="preserve"
   inkscape:version="1.0.2-2 (e86c870879, 2021-01-15)"
   sodipodi:docname="Cartoon_Network_1992.svg"
   inkscape:export-filename="C:\Users\tjdru\OneDrive\Pictures\Logos\TV\cartoonnetworklogo1992.png"
   inkscape:export-xdpi="142.46643"
   inkscape:export-ydpi="142.46643"><metadata
     id="metadata3089"><rdf:RDF><cc:Work
         rdf:about=""><dc:format>image/svg+xml</dc:format><dc:type
           rdf:resource="http://purl.org/dc/dcmitype/StillImage" /><dc:title></dc:title></cc:Work></rdf:RDF></metadata><sodipodi:namedview
     pagecolor="#ffffff"
     bordercolor="#666666"
     borderopacity="1"
     objecttolerance="10"
     gridtolerance="10"
     guidetolerance="10"
     inkscape:pageopacity="0"
     inkscape:pageshadow="2"
     inkscape:window-width="1366"
     inkscape:window-height="705"
     id="namedview3087"
     showgrid="false"
     fit-margin-top="0"
     fit-margin-left="0"
     fit-margin-right="0"
     fit-margin-bottom="0"
     inkscape:zoom="0.5"
     inkscape:cx="511.68308"
     inkscape:cy="98.202886"
     inkscape:window-x="-8"
     inkscape:window-y="-8"
     inkscape:window-maximized="1"
     inkscape:current-layer="layer6"
     showguides="true"
     inkscape:guide-bbox="true"
     inkscape:snap-global="true"
     inkscape:document-rotation="0"
     inkscape:snap-smooth-nodes="false"
     inkscape:snap-page="false"
     inkscape:snap-nodes="true"
     inkscape:snap-bbox="false"
     inkscape:bbox-paths="false"
     inkscape:bbox-nodes="true" /><defs
     id="defs5"><clipPath
       id="clipPath19"><path
         d="M 0,0 H 193 V 192 H 0 Z"
         id="path21"
         inkscape:connector-curvature="0" /></clipPath></defs><g
     inkscape:groupmode="layer"
     id="layer6"
     inkscape:label="Layer 1"
     style="display:inline;opacity:1"
     transform="translate(-683.86845,-751.18075)"><g
       id="g1957"
       transform="matrix(1.4840253,0,0,1.4840253,-331.00959,-363.59044)"><path
         id="rect1163"
         style="fill:#000000;stroke:none;stroke-width:2.0889;stroke-linecap:square;stroke-dashoffset:5.70936;paint-order:markers stroke fill"
         d="M 683.86842,751.18072 H 1357.7114 V 946.30918 H 683.86842 Z"
         sodipodi:nodetypes="ccccc" /><path
         id="path1187-8"
         style="display:inline;fill:#ffffff;stroke:none;stroke-width:0.69826"
         d="m 1176.6395,928.28679 v -66.6055 h 41.8712 c 0,0 22.7867,-0.13919 22.6342,22.479 0.093,6.71876 -3.93,12.26215 -9.2328,16.28019 l 19.1476,27.84631 h -28.1406 l -13.588,-18.1358 h -8.5328 v 18.1358 z m 39.8174,-43.01208 c 0,-5.29663 -5.688,-7.38289 -5.688,-7.38289 h -9.9698 v 14.76589 l 10.1279,-3.2e-4 c 0,0 5.5299,-2.08667 5.5299,-7.38268 z M 735.8237,764.20534 c -20.0073,-0.0301 -36.24831,15.7616 -36.27539,35.2871 0,19.52542 16.21921,35.33822 36.20117,35.33985 15.81813,0.0238 29.28135,-9.87023 34.22461,-23.66602 l -21.39844,-6.9082 c -1.97051,5.05214 -6.96188,8.65176 -12.8418,8.6582 -7.60155,0 -13.75979,-5.99577 -13.76953,-13.39843 0,-7.40815 6.14629,-13.42084 13.7461,-13.42969 5.79368,-0.006 10.74463,3.48249 12.77929,8.42187 l 21.39649,-6.90625 c -5.00798,-13.62368 -18.36178,-23.3778 -34.0625,-23.39843 z m 301.4577,97.44448 -8.4502,22.05401 -9.0853,-22.2994 -8.8685,22.2994 -8.0483,-21.95854 -24.14371,0.12759 25.78551,69.11877 15.275,-23.75527 15.2763,23.96214 26.2023,-69.54849 z m -183.15471,41.9626 v -18.74667 h -25.70681 v -7.62759 h 27.60302 v -15.58834 h -52.04691 l 0.12606,66.63697 h 52.12648 v -16.34862 h -27.80865 v -8.32575 z M 1318.1676,767.19839 v 27.57962 l -45.928,-27.57962 -0.083,66.63697 h 23.328 v -23.91251 l 44.2451,25.66572 v -68.39018 z m -427.23675,66.60557 v -66.6055 h 41.87119 c 0,0 22.78671,-0.13919 22.63419,22.479 0.0933,6.71876 -3.92995,12.26215 -9.23283,16.28019 l 19.14764,27.84631 h -28.14056 l -13.58808,-18.1358 h -8.53279 v 18.1358 z m 39.8174,-43.01208 c 0,-5.29663 -5.68799,-7.38289 -5.68799,-7.38289 h -9.96985 v 14.76589 l 10.1279,-3.2e-4 c 0,0 5.52994,-2.08667 5.52994,-7.38268 z m 184.51705,-3.70406 c 7.4081,-0.008 13.4216,5.99014 13.4294,13.39899 0,7.40821 -5.9894,13.42194 -13.4057,13.43027 -7.4101,0 -13.4132,-5.99648 -13.4227,-13.39915 0,-7.40814 5.9906,-13.42126 13.399,-13.43011 z m 0.039,48.74365 c 19.4813,0.0301 35.3121,-15.76224 35.3384,-35.26571 0.029,-19.50345 -15.7631,-35.33508 -35.2665,-35.36137 -19.5034,-0.0301 -35.3357,15.76304 -35.3621,35.28854 0,19.52542 15.8115,35.33691 35.2902,35.33854 z M 784.22194,756.31353 v 90.31055 H 876.886 v -90.31055 z m 190.25,0 v 90.31055 h 92.66406 v -90.31055 z m 190.24996,0 v 90.31055 h 92.6641 v -90.31055 z m 46.4668,8.89063 c 19.5034,0.0263 35.2966,15.85788 35.2676,35.36133 -0.026,19.50347 -15.8585,35.29572 -35.3398,35.26562 -19.4787,-0.002 -35.2891,-15.81247 -35.2891,-35.33789 0.026,-19.5255 15.8579,-35.31916 35.3613,-35.28906 z m -222.38473,1.99414 h 62.05863 v 20.18945 l -18.6114,-2.70312 v 49.11914 h -24.8515 v -49.4375 l -18.59573,2.86132 z m -159.86133,0.0859 38.34375,66.51953 h -24.78906 l -3.8125,-8.62696 h -20.24219 l -4.43164,8.62696 h -23.5957 z m 382.13476,19.80273 c -7.4084,0.009 -13.3984,6.0235 -13.3984,13.43164 0.01,7.40267 6.0137,13.39844 13.4238,13.39844 7.4163,-0.008 13.4043,-6.02148 13.4043,-13.42969 -0.01,-7.40885 -6.0216,-13.40839 -13.4297,-13.40039 z m -382.13476,11.60937 -5.875,13.77735 h 11.9414 z m -139.85938,50.04883 v 92.43164 h 92.66407 v -92.43164 z m 190.25,0 v 92.43164 h 92.66407 v -92.43164 z m 190.25004,0 v 92.43164 h 92.664 v -92.43164 z m 190.25,0 v 92.43164 h 92.664 v -92.43164 z m -144.4571,11.63282 c 19.5034,0.0263 35.2947,15.85785 35.2657,35.36132 -0.026,19.50345 -15.8566,35.29573 -35.3379,35.26563 -19.4787,-0.002 -35.2891,-15.81442 -35.2891,-35.33984 0.026,-19.52553 15.8579,-35.31721 35.3613,-35.28711 z m -414.06833,1.27148 45.92774,27.58008 v -27.58008 h 21.5625 v 68.39063 l -44.2461,-25.66602 v 23.91211 h -23.32812 z m 192.1211,0 h 62.04297 v 20.19922 l -18.59766,-2.70508 v 49.14258 H 912.02467 V 878.8272 l -18.5957,2.86133 z m 380.43753,0 22.7324,0.11133 v 28.05078 l 19.1836,-28.16211 h 25.0137 l -21.0586,32.57813 23.1367,34.05859 h -28.7656 l -17.9336,-26.49024 v 26.49024 h -22.3086 z m -158.6016,20.61133 c -7.4084,0.009 -13.3984,6.02154 -13.3984,13.42969 0.01,7.40267 6.0117,13.40039 13.4218,13.40039 7.4163,-0.008 13.4063,-6.0234 13.4063,-13.43164 -0.01,-7.40883 -6.0216,-13.40644 -13.4297,-13.39844 z"
         sodipodi:nodetypes="cccccccccccccccccccccccccccccccccccccccccccccccccccccccccccccccccccccccccccccccccccccccccccccccccccccccccccccccccccccccccccccccccccccccccccccccccccccccccccccccccccccccccccccccccccccccccccccccccc" /></g></g></svg>
